<svg width="20" height="20" viewBox="0 0 20 20" fill="none" xmlns="http://www.w3.org/2000/svg">
<path d="M18.9268 15.8823H15.3146C15.0782 15.8823 14.8866 15.6775 14.8866 15.4249C14.8866 15.1723 15.0782 14.9676 15.3146 14.9676H18.9268C19.0445 14.9676 19.144 14.8621 19.144 14.7372L19.1396 2.50704C19.1396 2.38198 19.0401 2.2765 18.9224 2.2765H17.6253C17.3889 2.2765 17.1973 2.07174 17.1973 1.81916C17.1973 1.56658 17.3889 1.36182 17.6253 1.36182H18.9224C19.5142 1.36182 19.9956 1.87549 19.9956 2.50688L20 14.737C20 15.3686 19.5186 15.8823 18.9268 15.8823ZM4.6821 15.8823H1.07654C0.48537 15.8823 0.00439689 15.3686 0.00439689 14.7372L0 2.50708C0 1.87554 0.480973 1.36186 1.07214 1.36186H2.37031C2.60669 1.36186 2.79833 1.56662 2.79833 1.8192C2.79833 2.07178 2.60669 2.27654 2.37031 2.27654H1.07214C0.954981 2.27654 0.856031 2.38202 0.856031 2.50692L0.860428 14.737C0.860428 14.8621 0.959377 14.9676 1.07654 14.9676H4.6821C4.91848 14.9676 5.11012 15.1723 5.11012 15.4249C5.11012 15.6775 4.91848 15.8823 4.6821 15.8823Z" fill="#AF987F"/>
<path d="M7.7289 14.0319H6.01493C5.77855 14.0319 5.58691 13.8271 5.58691 13.5745C5.58691 13.322 5.77855 13.1172 6.01493 13.1172H7.7289C7.96528 13.1172 8.15691 13.322 8.15691 13.5745C8.15691 13.8271 7.96532 14.0319 7.7289 14.0319Z" fill="#AF987F"/>
<path d="M7.73049 15.6784H6.58329C6.34691 15.6784 6.15527 15.4736 6.15527 15.221C6.15527 14.9684 6.34691 14.7637 6.58329 14.7637H7.73049C7.96687 14.7637 8.1585 14.9684 8.1585 15.221C8.1585 15.4736 7.96691 15.6784 7.73049 15.6784Z" fill="#AF987F"/>
<path d="M7.73049 12.3859H6.58329C6.34691 12.3859 6.15527 12.1811 6.15527 11.9285C6.15527 11.676 6.34691 11.4712 6.58329 11.4712H7.73049C7.96687 11.4712 8.1585 11.676 8.1585 11.9285C8.1585 12.1811 7.96691 12.3859 7.73049 12.3859Z" fill="#AF987F"/>
<path d="M13.9801 14.0319H12.3382C12.1018 14.0319 11.9102 13.8271 11.9102 13.5745C11.9102 13.322 12.1018 13.1172 12.3382 13.1172H13.9801C14.2165 13.1172 14.4081 13.322 14.4081 13.5745C14.4081 13.8271 14.2165 14.0319 13.9801 14.0319Z" fill="#AF987F"/>
<path d="M13.4375 15.6784H12.3382C12.1018 15.6784 11.9102 15.4736 11.9102 15.221C11.9102 14.9684 12.1018 14.7637 12.3382 14.7637H13.4375C13.6739 14.7637 13.8655 14.9684 13.8655 15.221C13.8655 15.4736 13.6739 15.6784 13.4375 15.6784Z" fill="#AF987F"/>
<path d="M13.4375 12.3859H12.3382C12.1018 12.3859 11.9102 12.1811 11.9102 11.9285C11.9102 11.676 12.1018 11.4712 12.3382 11.4712H13.4375C13.6739 11.4712 13.8655 11.676 13.8655 11.9285C13.8655 12.1811 13.6739 12.3859 13.4375 12.3859Z" fill="#AF987F"/>
<path d="M9.99735 18.2848C9.76097 18.2848 9.56934 18.08 9.56934 17.8274V16.0384C9.56934 15.7858 9.76097 15.5811 9.99735 15.5811C10.2337 15.5811 10.4254 15.7858 10.4254 16.0384V17.8274C10.4254 18.08 10.2338 18.2848 9.99735 18.2848Z" fill="#AF987F"/>
<path d="M11.5403 17.6932C11.3039 17.6932 11.1123 17.4884 11.1123 17.2358V16.0384C11.1123 15.7858 11.3039 15.5811 11.5403 15.5811C11.7767 15.5811 11.9683 15.7858 11.9683 16.0384V17.2358C11.9683 17.4884 11.7767 17.6932 11.5403 17.6932Z" fill="#AF987F"/>
<path d="M8.45634 17.6927C8.21995 17.6927 8.02832 17.4879 8.02832 17.2354V16.0379C8.02832 15.7853 8.21995 15.5806 8.45634 15.5806C8.69272 15.5806 8.88435 15.7853 8.88435 16.0379V17.2354C8.88435 17.4879 8.69272 17.6927 8.45634 17.6927Z" fill="#AF987F"/>
<path d="M9.99735 11.5466C9.76097 11.5466 9.56934 11.3418 9.56934 11.0892V9.32258C9.56934 9.07 9.76097 8.86523 9.99735 8.86523C10.2337 8.86523 10.4254 9.07 10.4254 9.32258V11.0892C10.4254 11.3419 10.2338 11.5466 9.99735 11.5466Z" fill="#AF987F"/>
<path d="M11.5403 11.5469C11.3039 11.5469 11.1123 11.3421 11.1123 11.0895V9.90705C11.1123 9.65447 11.3039 9.44971 11.5403 9.44971C11.7767 9.44971 11.9683 9.65447 11.9683 9.90705V11.0895C11.9683 11.3421 11.7767 11.5469 11.5403 11.5469Z" fill="#AF987F"/>
<path d="M8.45634 11.5464C8.21995 11.5464 8.02832 11.3416 8.02832 11.089V9.90656C8.02832 9.65398 8.21995 9.44922 8.45634 9.44922C8.69272 9.44922 8.88435 9.65398 8.88435 9.90656V11.089C8.88435 11.3417 8.69272 11.5464 8.45634 11.5464Z" fill="#AF987F"/>
<path d="M12.1826 16.3654H7.81376C7.57738 16.3654 7.38574 16.1606 7.38574 15.9081V11.2425C7.38574 10.9899 7.57738 10.7852 7.81376 10.7852H12.1826C12.4189 10.7852 12.6106 10.9899 12.6106 11.2425V15.9081C12.6106 16.1606 12.4189 16.3654 12.1826 16.3654ZM8.24177 15.4507H11.7545V11.6998H8.24177V15.4507Z" fill="#AF987F"/>
<path d="M18.0526 1.58819C18.0526 1.31353 18.0482 1.13658 17.9616 0.966078C17.8489 0.744516 17.6665 0.67367 17.5055 0.61118C17.4645 0.595256 17.4181 0.577254 17.3654 0.554678C14.9057 -0.496253 12.9799 0.0469445 10.4849 1.34027C10.2901 1.44113 10.1289 1.52786 9.99788 1.62137C9.86679 1.52778 9.70547 1.44109 9.51053 1.34035C7.01567 0.0471108 5.09022 -0.496004 2.631 0.554678C2.57866 0.577004 2.5322 0.595007 2.49119 0.610889C2.32998 0.673337 2.14726 0.744142 2.0345 0.965579C1.9436 1.14403 1.94321 1.33956 1.94271 1.58731L1.92286 13.2093C1.9217 13.4255 2.00061 13.63 2.14512 13.7853C2.28298 13.9335 2.47174 14.0215 2.668 14.0322C2.73508 14.0359 2.80275 14.029 2.86559 14.0023C3.22598 13.8501 3.59956 13.7335 3.98076 13.6523C4.01995 17.1596 6.70423 20 9.99874 20C13.2926 20 15.9764 17.1596 16.0156 13.6523C16.3966 13.7334 16.7701 13.85 17.1308 14.0024C17.1809 14.0235 17.2343 14.0344 17.2882 14.0344C17.7212 14.0344 18.0735 13.6655 18.0735 13.2111L18.0526 1.58819ZM9.57076 7.16585C9.03423 7.20631 8.51695 7.32214 8.02808 7.50354L7.07049 6.33286V4.89128H6.21446V6.50458C6.21446 6.61525 6.25205 6.72219 6.32022 6.80555L7.20376 7.88571C5.51586 8.83461 4.29944 10.6145 4.0345 12.7122C3.60668 12.7889 3.18629 12.9048 2.77913 13.0602L2.7987 1.58923C2.79878 1.56191 2.79886 1.51219 2.79979 1.46433C2.84142 1.44816 2.89139 1.42853 2.9487 1.40405C5.12528 0.474102 6.80275 0.953438 9.1373 2.16357C9.23812 2.21566 9.49753 2.34979 9.56625 2.41556L9.57076 7.16585ZM9.99874 19.0854C7.15193 19.0854 4.8359 16.6133 4.8359 13.5747C4.8359 13.4325 4.841 13.2915 4.85096 13.152C4.851 13.1514 4.85104 13.1507 4.85111 13.1501C5.05489 10.3092 7.28582 8.06411 9.99878 8.06411C12.7112 8.06411 14.9417 10.3092 15.1454 13.1503C15.1454 13.1508 15.1454 13.1515 15.1455 13.152C15.1554 13.2916 15.1605 13.4325 15.1605 13.5748C15.1605 16.6133 12.8449 19.0854 9.99874 19.0854ZM10.4292 2.41585C10.4976 2.35012 10.7573 2.21566 10.8584 2.16336C13.1928 0.953272 14.8706 0.473894 17.0474 1.40392C17.1044 1.42837 17.1542 1.44795 17.1957 1.46412C17.1966 1.5119 17.1966 1.5615 17.1966 1.5891L17.2173 13.0601C16.8099 12.9046 16.3896 12.7885 15.9621 12.7119C15.6972 10.6142 14.4808 8.83457 12.7933 7.88575L13.6768 6.80559C13.745 6.72223 13.7826 6.61529 13.7826 6.50462V4.89132H12.9265V6.33291L11.969 7.50354C11.4803 7.32222 10.9632 7.20639 10.4268 7.16593L10.4292 2.41585Z" fill="#AF987F"/>
<path d="M13.3548 5.3488C12.5921 5.3488 11.9717 4.68615 11.9717 3.87166C11.9717 3.05718 12.5921 2.39453 13.3548 2.39453C14.1169 2.39453 14.7369 3.05718 14.7369 3.87166C14.7369 4.68615 14.1169 5.3488 13.3548 5.3488ZM13.3548 3.30922C13.0642 3.30922 12.8277 3.56154 12.8277 3.87166C12.8277 4.18178 13.0642 4.43411 13.3548 4.43411C13.6449 4.43411 13.8809 4.18178 13.8809 3.87166C13.8809 3.56154 13.6449 3.30922 13.3548 3.30922Z" fill="#AF987F"/>
<path d="M6.63999 5.34928C5.8773 5.34928 5.25684 4.68664 5.25684 3.87215C5.25684 3.05767 5.8773 2.39502 6.63999 2.39502C7.40267 2.39502 8.02318 3.05767 8.02318 3.87215C8.02318 4.68664 7.40267 5.34928 6.63999 5.34928ZM6.63999 3.3097C6.34933 3.3097 6.11287 3.56203 6.11287 3.87215C6.11287 4.18227 6.34933 4.4346 6.63999 4.4346C6.93065 4.4346 7.16715 4.18227 7.16715 3.87215C7.16715 3.56203 6.93065 3.3097 6.63999 3.3097Z" fill="#AF987F"/>
</svg>
