<svg width="37" height="36" viewBox="0 0 37 36" fill="none" xmlns="http://www.w3.org/2000/svg">
<rect x="0.5" width="36" height="36" rx="18" fill="#AF987F"/>
<g clip-path="url(#clip0_128_5997)">
<path d="M18.0402 21.735C18.2294 22.3658 17.7569 23.0008 17.0986 23.0008H15.5744C14.9161 23.0008 14.4436 22.3658 14.6327 21.735L15.2636 19.6317C15.4061 19.1583 15.8419 18.8333 16.3361 18.8333C16.8302 18.8333 17.2669 19.1575 17.4086 19.6317L18.0394 21.735H18.0402ZM26.7527 14.7983V23.4175C26.7527 25.945 24.6961 28.0008 22.1694 28.0008H14.6702C12.1436 28.0008 10.0869 25.945 10.0869 23.4175V12.5833C10.0869 10.0558 12.1427 8 14.6702 8H19.9569C21.1819 8 22.3327 8.47667 23.1977 9.3425L25.4119 11.5567C26.2769 12.4217 26.7536 13.5725 26.7536 14.7975L26.7527 14.7983ZM24.2527 23.4175V15.5008H20.9194C19.9986 15.5008 19.2527 14.755 19.2527 13.8342V10.5H17.5861V11.75C17.5861 12.4408 17.0261 13 16.3361 13C15.6461 13 15.0861 12.4408 15.0861 11.75V10.5H14.6694C13.5202 10.5 12.5861 11.435 12.5861 12.5833V23.4167C12.5861 24.565 13.5202 25.5 14.6694 25.5H22.1694C23.3186 25.5 24.2527 24.5658 24.2527 23.4175ZM16.3361 17.1675C17.0261 17.1675 17.5861 16.6075 17.5861 15.9175C17.5861 15.2275 17.0261 14.6675 16.3361 14.6675C15.6461 14.6675 15.0861 15.2275 15.0861 15.9175C15.0861 16.6075 15.6461 17.1675 16.3361 17.1675Z" fill="#F7F5F2"/>
</g>
<defs>
<clipPath id="clip0_128_5997">
<rect width="20" height="20" fill="white" transform="translate(8.5 8)"/>
</clipPath>
</defs>
</svg>
