<svg width="37" height="36" viewBox="0 0 37 36" fill="none" xmlns="http://www.w3.org/2000/svg">
<rect x="0.5" width="36" height="36" rx="18" fill="#F7F5F2"/>
<g clip-path="url(#clip0_125_864)">
<path d="M24.75 8H18.9167C16.8492 8 15.1667 9.6825 15.1667 11.75V20.9167C15.1667 22.525 16.475 23.8333 18.0833 23.8333H24.75C26.8175 23.8333 28.5 22.1508 28.5 20.0833V11.75C28.5 9.6825 26.8175 8 24.75 8ZM18.9167 9.66667H24.75C25.8983 9.66667 26.8333 10.6008 26.8333 11.75V18H18.0833C17.6367 18 17.2125 18.1017 16.8333 18.2817V11.75C16.8333 10.6008 17.7683 9.66667 18.9167 9.66667ZM24.75 22.1667H18.0833C17.3942 22.1667 16.8333 21.6058 16.8333 20.9167C16.8333 20.2275 17.3942 19.6667 18.0833 19.6667H26.8333V20.0833C26.8333 21.2325 25.8983 22.1667 24.75 22.1667ZM20.7192 25.75C21.0417 26.0792 21.0367 26.6058 20.7075 26.9283C20.0025 27.6192 19.0708 28 18.0833 28H11.4167C9.80833 28 8.5 26.6917 8.5 25.0833V15.9167C8.5 13.8492 10.1825 12.1667 12.25 12.1667H12.6667C13.1267 12.1667 13.5 12.5392 13.5 13C13.5 13.4608 13.1267 13.8333 12.6667 13.8333H12.25C11.1017 13.8333 10.1667 14.7675 10.1667 15.9167V22.4483C10.5458 22.2675 10.97 22.1667 11.4167 22.1667H12.6667C13.1267 22.1667 13.5 22.5392 13.5 23C13.5 23.4608 13.1267 23.8333 12.6667 23.8333H11.4167C10.7275 23.8333 10.1667 24.3942 10.1667 25.0833C10.1667 25.7725 10.7275 26.3333 11.4167 26.3333H18.0833C18.6317 26.3333 19.15 26.1217 19.5408 25.7383C19.87 25.415 20.3967 25.4217 20.7192 25.75Z" fill="#ABABAB"/>
</g>
<defs>
<clipPath id="clip0_125_864">
<rect width="20" height="20" fill="white" transform="translate(8.5 8)"/>
</clipPath>
</defs>
</svg>
