<svg width="37" height="36" viewBox="0 0 37 36" fill="none" xmlns="http://www.w3.org/2000/svg">
<rect x="0.5" width="36" height="36" rx="18" fill="#AF987F"/>
<g clip-path="url(#clip0_128_6012)">
<path d="M18.5 15.845V17.1667C18.5 17.6275 18.8725 18 19.3333 18H20.655C21.545 18 22.3817 17.6533 23.0117 17.0233L27.7675 12.2675C28.7425 11.2925 28.7425 9.7075 27.7675 8.7325C26.7925 7.7575 25.2075 7.7575 24.2325 8.7325L19.4767 13.4883C18.8467 14.1183 18.5 14.955 18.5 15.845ZM20.1667 15.845C20.1667 15.4 20.34 14.9817 20.655 14.6667L25.4108 9.91083C25.7367 9.585 26.2633 9.585 26.5892 9.91083C26.915 10.2367 26.9142 10.7642 26.5892 11.0892L21.8333 15.845C21.5183 16.16 21.1 16.3333 20.655 16.3333H20.1667V15.845ZM26 22.1667H25.1667V19.6667C25.1667 19.2058 24.7942 18.8333 24.3333 18.8333C23.8725 18.8333 23.5 19.2058 23.5 19.6667V22.1667H19.3333C17.955 22.1667 16.8333 23.2883 16.8333 24.6667V25.0833C16.8333 25.7725 16.2725 26.3333 15.5833 26.3333C14.8942 26.3333 14.3333 25.7725 14.3333 25.0833V10.9167C14.3333 10.4675 14.2225 10.0467 14.0408 9.66667H20.1667C20.6275 9.66667 21 9.29417 21 8.83333C21 8.3725 20.6275 8 20.1667 8H11.4167C9.80833 8 8.5 9.30833 8.5 10.9167V11.3333C8.5 12.7117 9.62167 13.8333 11 13.8333H12.6667V25.0833C12.6667 26.6917 13.9742 27.9992 15.5817 28H25.5833C27.1917 28 28.5 26.6917 28.5 25.0833V24.6667C28.5 23.2883 27.3783 22.1667 26 22.1667ZM12.6667 12.1667H11C10.54 12.1667 10.1667 11.7933 10.1667 11.3333V10.9167C10.1667 10.2275 10.7275 9.66667 11.4167 9.66667C12.1058 9.66667 12.6667 10.2275 12.6667 10.9167V12.1667ZM26.8333 25.0833C26.8333 25.7725 26.2725 26.3333 25.5833 26.3333H18.2183C18.3992 25.9542 18.5 25.53 18.5 25.0833V24.6667C18.5 24.2067 18.8733 23.8333 19.3333 23.8333H26C26.46 23.8333 26.8333 24.2067 26.8333 24.6667V25.0833Z" fill="#F7F5F2"/>
</g>
<defs>
<clipPath id="clip0_128_6012">
<rect width="20" height="20" fill="white" transform="translate(8.5 8)"/>
</clipPath>
</defs>
</svg>
