<svg width="37" height="36" viewBox="0 0 37 36" fill="none" xmlns="http://www.w3.org/2000/svg">
<rect x="0.5" width="36" height="36" rx="18" fill="#F7F5F2"/>
<g clip-path="url(#clip0_128_5982)">
<path d="M14.3333 27.375C14.3333 27.72 14.0317 28 13.66 28H9.17333C8.80167 28 8.5 27.72 8.5 27.375C8.5 25.8792 9.80583 24.6667 11.4167 24.6667C13.0275 24.6667 14.3333 25.8792 14.3333 27.375ZM25.5833 24.6667C23.9725 24.6667 22.6667 25.8792 22.6667 27.375C22.6667 27.72 22.9683 28 23.34 28H27.8275C28.1992 28 28.5008 27.72 28.5008 27.375C28.5008 25.8792 27.1942 24.6667 25.5833 24.6667ZM18.5 24.6667C17.0042 24.6667 15.5833 25.8792 15.5833 27.375C15.5833 27.72 15.8633 28 16.2083 28H20.7917C21.1367 28 21.4167 27.72 21.4167 27.375C21.4167 25.8792 19.9958 24.6667 18.5 24.6667ZM25.5833 23.8333C26.7342 23.8333 27.6667 22.9008 27.6667 21.75C27.6667 20.5992 26.7342 19.6667 25.5833 19.6667C24.4325 19.6667 23.5 20.5992 23.5 21.75C23.5 22.9008 24.4325 23.8333 25.5833 23.8333ZM18.5 23.8333C19.6508 23.8333 20.5833 22.9008 20.5833 21.75C20.5833 20.5992 19.6508 19.6667 18.5 19.6667C17.3492 19.6667 16.4167 20.5992 16.4167 21.75C16.4167 22.9008 17.3492 23.8333 18.5 23.8333ZM11.4167 23.8333C12.5675 23.8333 13.5 22.9008 13.5 21.75C13.5 20.5992 12.5675 19.6667 11.4167 19.6667C10.2658 19.6667 9.33333 20.5992 9.33333 21.75C9.33333 22.9008 10.2658 23.8333 11.4167 23.8333ZM28.5 16.75V12.5833C28.5 10.0567 26.4442 8 23.9167 8H13.0833C10.5558 8 8.5 10.0567 8.5 12.5833V16.75C8.5 17.44 9.05917 18 9.75 18C10.4408 18 11 17.44 11 16.75V12.5833C11 11.4342 11.935 10.5 13.0833 10.5H23.9167C25.065 10.5 26 11.4342 26 12.5833V16.75C26 17.44 26.5592 18 27.25 18C27.9408 18 28.5 17.44 28.5 16.75Z" fill="#ABABAB"/>
</g>
<defs>
<clipPath id="clip0_128_5982">
<rect width="20" height="20" fill="white" transform="translate(8.5 8)"/>
</clipPath>
</defs>
</svg>
