<svg width="24" height="24" viewBox="0 0 24 24" fill="none" xmlns="http://www.w3.org/2000/svg">
<rect x="0.75" y="0.75" width="22.5" height="22.5" rx="11.25" stroke="#F2F2F2" stroke-width="1.5"/>
<path d="M9.1 13C7.984 13 7.054 13.768 6.784 14.8H5.5V16H6.784C7.054 17.032 7.984 17.8 9.1 17.8C10.216 17.8 11.146 17.032 11.416 16H17.5V14.8H11.416C11.146 13.768 10.216 13 9.1 13ZM9.1 16.6C8.44 16.6 7.9 16.06 7.9 15.4C7.9 14.74 8.44 14.2 9.1 14.2C9.76 14.2 10.3 14.74 10.3 15.4C10.3 16.06 9.76 16.6 9.1 16.6ZM16.216 8.8C15.946 7.768 15.016 7 13.9 7C12.784 7 11.854 7.768 11.584 8.8H5.5V10H11.584C11.854 11.032 12.784 11.8 13.9 11.8C15.016 11.8 15.946 11.032 16.216 10H17.5V8.8H16.216ZM13.9 10.6C13.24 10.6 12.7 10.06 12.7 9.4C12.7 8.74 13.24 8.2 13.9 8.2C14.56 8.2 15.1 8.74 15.1 9.4C15.1 10.06 14.56 10.6 13.9 10.6Z" fill="#212121"/>
</svg>
