<svg width="17" height="16" viewBox="0 0 17 16" fill="none" xmlns="http://www.w3.org/2000/svg">
<path d="M15.816 2.68351C15.5927 2.46018 15.3313 2.28885 15.0473 2.17351C14.8713 1.55551 14.504 1.00685 13.9733 0.606181C13.2147 0.0335143 12.2547 -0.145152 11.3427 0.116181L9.39933 0.671514C9.066 0.766848 8.762 0.926181 8.5 1.13351C8.238 0.926181 7.93467 0.766848 7.60067 0.671514L5.65733 0.116848C4.74267 -0.143819 3.78467 0.034181 3.02667 0.606848C2.496 1.00685 2.12867 1.55618 1.95267 2.17418C1.66867 2.28951 1.40733 2.46085 1.184 2.68418C0.742667 3.12485 0.5 3.71085 0.5 4.33418V11.1762C0.5 12.8042 1.59333 14.2542 3.15933 14.7022L6.94333 15.7835C7.962 16.0748 9.03867 16.0748 10.0567 15.7835L13.8407 14.7022C15.4067 14.2548 16.5 12.8048 16.5 11.1762V4.33351C16.5 3.71018 16.2573 3.12418 15.816 2.68351ZM9.5 3.19018C9.5 2.91551 9.68467 2.67085 9.94867 2.59485L11.892 2.03951C12.1927 1.95285 12.516 2.01085 12.7687 2.20285C13.0213 2.39351 13.1667 2.68485 13.1667 3.00151V11.0595C13.1667 11.5035 12.8687 11.8988 12.4413 12.0208L9.5 12.8615V3.19018ZM3.83333 3.00151C3.83333 2.68485 3.978 2.39351 4.23133 2.20285C4.48467 2.01151 4.80733 1.95351 5.108 2.03951L7.05133 2.59485C7.31533 2.67018 7.5 2.91485 7.5 3.19018V12.8608L4.558 12.0202C4.13133 11.8982 3.83333 11.5028 3.83333 11.0588V3.00151Z" fill="#F7F5F2"/>
</svg>
